<svg width="32" height="32" viewBox="0 0 32 32" xmlns="http://www.w3.org/2000/svg">
  <!-- Space background -->
  <rect width="32" height="32" fill="#0a0a0a"/>
  
  <!-- Stars -->
  <circle cx="6" cy="8" r="0.5" fill="#ffffff" opacity="0.8"/>
  <circle cx="26" cy="6" r="0.5" fill="#ffffff" opacity="0.6"/>
  <circle cx="28" cy="18" r="0.5" fill="#ffffff" opacity="0.7"/>
  <circle cx="4" cy="24" r="0.5" fill="#ffffff" opacity="0.9"/>
  <circle cx="8" cy="28" r="0.5" fill="#ffffff" opacity="0.5"/>
  
  <!-- ISS main body -->
  <rect x="12" y="14" width="8" height="4" rx="1" fill="#c0c0c0"/>
  
  <!-- ISS solar panels -->
  <rect x="6" y="13" width="5" height="6" rx="0.5" fill="#1e3a8a" stroke="#4a90e2" stroke-width="0.5"/>
  <rect x="21" y="13" width="5" height="6" rx="0.5" fill="#1e3a8a" stroke="#4a90e2" stroke-width="0.5"/>
  
  <!-- Solar panel grid lines -->
  <line x1="7" y1="15" x2="10" y2="15" stroke="#4a90e2" stroke-width="0.3"/>
  <line x1="7" y1="17" x2="10" y2="17" stroke="#4a90e2" stroke-width="0.3"/>
  <line x1="22" y1="15" x2="25" y2="15" stroke="#4a90e2" stroke-width="0.3"/>
  <line x1="22" y1="17" x2="25" y2="17" stroke="#4a90e2" stroke-width="0.3"/>
  
  <!-- ISS antenna -->
  <line x1="16" y1="14" x2="16" y2="11" stroke="#ff4444" stroke-width="1" stroke-linecap="round"/>
  <circle cx="16" cy="11" r="1" fill="#ff4444"/>
  
  <!-- Radio waves -->
  <circle cx="16" cy="11" r="3" fill="none" stroke="#ff4444" stroke-width="0.5" opacity="0.6"/>
  <circle cx="16" cy="11" r="5" fill="none" stroke="#ff4444" stroke-width="0.3" opacity="0.4"/>
  <circle cx="16" cy="11" r="7" fill="none" stroke="#ff4444" stroke-width="0.2" opacity="0.2"/>
</svg>